<svg xmlns="http://www.w3.org/2000/svg" viewBox="0 0 714 714">
  <defs>
    <linearGradient id="react-signal-gradient" x1="61.547%" x2="35.222%" y1="42.64%" y2="100%">
      <stop offset="0%" stop-color="hsl(292.9,65%,60%)"/>
      <stop offset="100%" stop-color="hsl(292.9,40%,30%)"/>
    </linearGradient>
  </defs>
  <g fill-rule="evenodd" transform="translate(11 45)">
    <path fill="url(#react-signal-gradient)" d="M483.928 69.009l33.328 9.441 24.764 38.057 8.752 48.125V229l-40.249 128.683-6.466 16.817 31.787 89.353 21.141 79.278v51.937l-14.965 49.939-24.764 24.96-33.328 7.319-49.48-7.319-46.364-31.925-41.584-32.778-43.5 39.743-63.388 32.279h-42.109l-32.344-19.904-17.834-41.983-6.203-58.875 13.072-66.666-67.955-26.005-68.035-50.108L6.318 374.5l16.062-43.727 53.748-38.346 64.994-29.67 83.38-16.994 41.289-9.976 17.936-19.909 39.982-51.246 50.619-48.125 60.12-38.057 49.48-9.441zM346 305c-38.66 0-70 31.34-70 70s31.34 70 70 70 70-31.34 70-70-31.34-70-70-70z" transform="translate(0 -63)"/>
    <g fill-opacity="0" stroke="#61DAFB" stroke-width="26" transform="translate(0 -63)">
      <ellipse cx="346.5" cy="374.5" rx="341.5" ry="140.5"/>
      <ellipse cx="346.5" cy="374.5" rx="341.5" ry="140.5" transform="rotate(-61 346.5 374.5)"/>
      <ellipse cx="346.5" cy="374.5" rx="341.5" ry="140.5" transform="rotate(-120 346.5 374.5)"/>
    </g>
  </g>
  <circle cx="357" cy="357" r="71" fill="#61DAFB" />
</svg>
